{
	"asset":{
		"generator":"Khronos glTF Blender I/O v4.2.60",
		"version":"2.0"
	},
	"scene":0,
	"scenes":[
		{
			"name":"Scene",
			"nodes":[
				0,
				1
			]
		}
	],
	"nodes":[
		{
			"mesh":0,
			"name":"Cube",
			"scale":[
				0.1469936966896057,
				0.1469936966896057,
				0.1469936966896057
			],
			"translation":[
				0.010865013115108013,
				0.3789902925491333,
				0.11319348216056824
			]
		},
		{
			"mesh":1,
			"name":"Glass",
			"scale":[
				0.1469936966896057,
				0.1469936966896057,
				0.1469936966896057
			],
			"translation":[
				0.0146096246317029,
				0.3884540796279907,
				0.1522054672241211
			]
		}
	],
	"materials":[
		{
			"doubleSided":true,
			"name":"Material",
			"pbrMetallicRoughness":{
				"baseColorFactor":[
					0.800000011920929,
					0.800000011920929,
					0.800000011920929,
					1
				],
				"metallicFactor":0,
				"roughnessFactor":0.5
			}
		}
	],
	"meshes":[
		{
			"name":"Cube",
			"primitives":[
				{
					"attributes":{
						"POSITION":0,
						"NORMAL":1,
						"TEXCOORD_0":2
					},
					"indices":3,
					"material":0
				}
			]
		},
		{
			"name":"Cube.001",
			"primitives":[
				{
					"attributes":{
						"POSITION":4,
						"NORMAL":5,
						"TEXCOORD_0":6
					},
					"indices":7,
					"material":0
				}
			]
		}
	],
	"accessors":[
		{
			"bufferView":0,
			"componentType":5126,
			"count":200,
			"max":[
				1.3347190618515015,
				2.108978033065796,
				0.28261101245880127
			],
			"min":[
				-1.3347190618515015,
				-2.108978033065796,
				-0.28261101245880127
			],
			"type":"VEC3"
		},
		{
			"bufferView":1,
			"componentType":5126,
			"count":200,
			"type":"VEC3"
		},
		{
			"bufferView":2,
			"componentType":5126,
			"count":200,
			"type":"VEC2"
		},
		{
			"bufferView":3,
			"componentType":5123,
			"count":468,
			"type":"SCALAR"
		},
		{
			"bufferView":4,
			"componentType":5126,
			"count":808,
			"max":[
				1.075908899307251,
				1.7000343799591064,
				0.22781100869178772
			],
			"min":[
				-1.075908899307251,
				-1.7000343799591064,
				-0.22781100869178772
			],
			"type":"VEC3"
		},
		{
			"bufferView":5,
			"componentType":5126,
			"count":808,
			"type":"VEC3"
		},
		{
			"bufferView":6,
			"componentType":5126,
			"count":808,
			"type":"VEC2"
		},
		{
			"bufferView":7,
			"componentType":5123,
			"count":1284,
			"type":"SCALAR"
		}
	],
	"bufferViews":[
		{
			"buffer":0,
			"byteLength":2400,
			"byteOffset":0,
			"target":34962
		},
		{
			"buffer":0,
			"byteLength":2400,
			"byteOffset":2400,
			"target":34962
		},
		{
			"buffer":0,
			"byteLength":1600,
			"byteOffset":4800,
			"target":34962
		},
		{
			"buffer":0,
			"byteLength":936,
			"byteOffset":6400,
			"target":34963
		},
		{
			"buffer":0,
			"byteLength":9696,
			"byteOffset":7336,
			"target":34962
		},
		{
			"buffer":0,
			"byteLength":9696,
			"byteOffset":17032,
			"target":34962
		},
		{
			"buffer":0,
			"byteLength":6464,
			"byteOffset":26728,
			"target":34962
		},
		{
			"buffer":0,
			"byteLength":2568,
			"byteOffset":33192,
			"target":34963
		}
	],
	"buffers":[
		{
			"byteLength":35760,
			"uri":"ipone.bin"
		}
	]
}
